<?xml version="1.0" encoding="utf-8"?>
<!-- Generator: Adobe Illustrator 16.0.0, SVG Export Plug-In . SVG Version: 6.00 Build 0)  -->
<!DOCTYPE svg PUBLIC "-//W3C//DTD SVG 1.1//EN" "http://www.w3.org/Graphics/SVG/1.1/DTD/svg11.dtd">
<svg version="1.1" id="Layer_1" xmlns="http://www.w3.org/2000/svg" xmlns:xlink="http://www.w3.org/1999/xlink" x="0px" y="0px"
	 width="273.636px" height="80.909px" viewBox="15.364 16.273 273.636 80.909"
	 enable-background="new 15.364 16.273 273.636 80.909" xml:space="preserve">
<g>
	<polygon fill="#FFFFFF" points="32.347,95.848 16.335,95.848 16.335,17.339 70.881,17.339 70.881,31.074 32.347,31.074 
		32.347,48.594 66.078,48.594 66.078,62.328 32.347,62.328 	"/>
	<g>
		<g>
			<defs>
				<rect id="SVGID_1_" x="15.919" y="16.912" width="272.784" height="80.082"/>
			</defs>
			<clipPath id="SVGID_2_">
				<use xlink:href="#SVGID_1_"  overflow="visible"/>
			</clipPath>
			<polygon clip-path="url(#SVGID_2_)" fill="none" stroke="#231F20" stroke-width="1.619" points="32.347,95.848 16.335,95.848 
				16.335,17.339 70.881,17.339 70.881,31.074 32.347,31.074 32.347,48.594 66.078,48.594 66.078,62.328 32.347,62.328 			"/>
		</g>
	</g>
	<path fill="#FFFFFF" d="M97.324,96.084c-15.658,0-29.783-9.762-29.783-31.061c0-21.301,14.125-31.064,29.783-31.064
		c15.658,0,29.781,9.763,29.781,31.064C127.105,86.322,112.982,96.084,97.324,96.084 M96.855,46.772
		c-12.008,0-14.233,10.589-14.233,18.251c0,7.66,2.225,18.248,14.233,18.248c12.009,0,14.232-10.588,14.232-18.248
		C111.088,57.361,108.864,46.772,96.855,46.772"/>
	<polyline fill="none" points="0,98.025 300,98.025 300,7 	"/>
	<g>
		<g>
			<defs>
				<rect id="SVGID_3_" x="15.919" y="16.912" width="272.784" height="80.082"/>
			</defs>
			<clipPath id="SVGID_4_">
				<use xlink:href="#SVGID_3_"  overflow="visible"/>
			</clipPath>
			<path clip-path="url(#SVGID_4_)" fill="none" stroke="#231F20" stroke-width="1.619" d="M97.324,96.084
				c-15.658,0-29.783-9.762-29.783-31.061c0-21.301,14.125-31.064,29.783-31.064c15.658,0,29.781,9.763,29.781,31.064
				C127.105,86.322,112.982,96.084,97.324,96.084z M96.855,46.772c-12.008,0-14.233,10.589-14.233,18.251
				c0,7.66,2.225,18.248,14.233,18.248c12.009,0,14.232-10.588,14.232-18.248C111.088,57.361,108.864,46.772,96.855,46.772z"/>
		</g>
	</g>
	<path fill="#FFFFFF" d="M128.968,34.083h14.898v11.338h0.221c3.225-6.083,6.784-11.943,16.236-11.943c1,0,2,0.113,3,0.226v15.997
		c-1.334-0.224-3-0.224-4.447-0.224c-12.121,0-14.344,7.66-14.344,14.307v32.241h-15.564V34.083z"/>
	<polyline fill="none" points="0,98.025 300,98.025 300,7 	"/>
	<g>
		<g>
			<defs>
				<rect id="SVGID_5_" x="15.919" y="16.912" width="272.784" height="80.082"/>
			</defs>
			<clipPath id="SVGID_6_">
				<use xlink:href="#SVGID_5_"  overflow="visible"/>
			</clipPath>
			<path clip-path="url(#SVGID_6_)" fill="none" stroke="#231F20" stroke-width="1.619" d="M128.968,34.083h14.898v11.338h0.221
				c3.225-6.083,6.784-11.943,16.236-11.943c1,0,2,0.113,3,0.226v15.997c-1.334-0.224-3-0.224-4.447-0.224
				c-12.121,0-14.344,7.66-14.344,14.307v32.241h-15.564V34.083z"/>
		</g>
	</g>
	<path fill="#FFFFFF" d="M267.711,33.479c-9.447,0-13.785,6.647-15.787,9.576c-4-6.421-7.895-9.576-16.455-9.576
		c-10.451,0-14.787,6.421-16.789,10.365h-0.223v-9.842H202.4v35.639c0,10.701-6.894,13.631-12.008,13.631
		c-4.779,0-10.117-1.801-10.117-11.039V34.001H164.71v40.483c0,15.32,8.45,22.082,20.124,22.082c8.229,0,14.455-3.605,18.014-10.027
		h0.223v9.484h16.054V58.488c0-6.534,2.335-11.716,9.674-11.716c9.341,0,9.341,7.097,9.341,12.167v37.084h15.567V59.053
		c0-7.099,2.778-12.281,10.563-12.281c4.558,0,8.448,2.929,8.448,11.83v37.246h15.568V53.531
		C288.285,40.351,279.279,33.479,267.711,33.479"/>
	<polyline fill="none" points="0,98.025 300,98.025 300,7 	"/>
	<g>
		<g>
			<defs>
				<rect id="SVGID_7_" x="15.919" y="16.912" width="272.784" height="80.082"/>
			</defs>
			<clipPath id="SVGID_8_">
				<use xlink:href="#SVGID_7_"  overflow="visible"/>
			</clipPath>
			<path clip-path="url(#SVGID_8_)" fill="none" stroke="#231F20" stroke-width="1.619" d="M267.711,33.479
				c-9.447,0-13.785,6.647-15.787,9.576c-4-6.421-7.895-9.576-16.455-9.576c-10.451,0-14.787,6.421-16.789,10.365h-0.223v-9.842
				H202.4v35.639c0,10.701-6.894,13.631-12.008,13.631c-4.779,0-10.117-1.801-10.117-11.039V34.001H164.71v40.483
				c0,15.32,8.45,22.082,20.124,22.082c8.229,0,14.455-3.605,18.014-10.027h0.223v9.484h16.054V58.488
				c0-6.534,2.335-11.716,9.674-11.716c9.341,0,9.341,7.097,9.341,12.167v37.084h15.567V59.053c0-7.099,2.778-12.281,10.563-12.281
				c4.558,0,8.448,2.929,8.448,11.83v37.246h15.568V53.531C288.285,40.351,279.279,33.479,267.711,33.479z"/>
		</g>
	</g>
	<path fill="#FFFFFF" d="M73.981,17.537h4.036c1.513,0,2.457,0.292,3.205,0.914c0.744,0.622,1.546,1.72,1.546,3.275
		c0,0.896-0.321,2.305-1.262,3.237c-0.783,0.768-1.531,0.952-2.188,1.116l3.575,4.994h-2.954l-3.486-5.177h-0.036v5.177h-2.436
		V17.537L73.981,17.537z M76.417,24.012h1.567c2.009,0,2.348-1.372,2.348-2.085c0-0.75-0.444-2.049-2.348-2.049h-1.567V24.012z"/>
	<path fill="none" stroke="#231F20" stroke-width="0.337" d="M73.981,17.537h4.036c1.513,0,2.457,0.292,3.205,0.914
		c0.744,0.622,1.546,1.72,1.546,3.275c0,0.896-0.321,2.305-1.262,3.237c-0.783,0.768-1.531,0.952-2.188,1.116l3.575,4.994h-2.954
		l-3.486-5.177h-0.036v5.177h-2.436V17.537L73.981,17.537z M76.417,24.012h1.567c2.009,0,2.348-1.372,2.348-2.085
		c0-0.75-0.444-2.049-2.348-2.049h-1.567V24.012z"/>
	<path fill="#FFFFFF" d="M86.378,27.085c0.109,0.659,1.032,2.086,2.723,2.086c1.05,0,1.831-0.458,2.275-1.299h2.491
		c-0.569,1.829-2.454,3.53-4.766,3.53c-2.935,0-5.213-2.415-5.213-5.378c0-2.872,2.154-5.506,5.195-5.506
		c3.13,0,5.104,2.78,5.104,5.341c0,0.476-0.071,0.896-0.142,1.225L86.378,27.085L86.378,27.085z M91.771,25.128
		c-0.269-1.628-1.495-2.378-2.669-2.378c-0.871,0-2.348,0.494-2.792,2.378H91.771z"/>
	<path fill="none" stroke="#231F20" stroke-width="0.337" d="M86.378,27.085c0.109,0.659,1.032,2.086,2.723,2.086
		c1.05,0,1.831-0.458,2.275-1.299h2.491c-0.569,1.829-2.454,3.53-4.766,3.53c-2.935,0-5.213-2.415-5.213-5.378
		c0-2.872,2.154-5.506,5.195-5.506c3.13,0,5.104,2.78,5.104,5.341c0,0.476-0.071,0.896-0.142,1.225L86.378,27.085L86.378,27.085z
		 M91.771,25.128c-0.269-1.628-1.495-2.378-2.669-2.378c-0.871,0-2.348,0.494-2.792,2.378H91.771z"/>
	<path fill="#FFFFFF" d="M105.804,31.073h-2.171v-1.261c-0.746,0.914-2.204,1.59-3.451,1.59c-2.544,0-4.802-2.084-4.802-5.469
		c0-3.11,2.206-5.36,4.944-5.36c2.01,0,3.203,1.482,3.274,1.628h0.034v-1.28h2.171L105.804,31.073L105.804,31.073z M100.682,22.805
		c-1.939,0-2.936,1.719-2.936,3.238c0,1.719,1.244,3.128,2.936,3.128c1.636,0,2.88-1.317,2.88-3.201
		C103.562,23.866,102.085,22.805,100.682,22.805"/>
	<path fill="none" stroke="#231F20" stroke-width="0.337" d="M105.804,31.073h-2.171v-1.261c-0.746,0.914-2.204,1.59-3.451,1.59
		c-2.544,0-4.802-2.084-4.802-5.469c0-3.11,2.206-5.36,4.944-5.36c2.01,0,3.203,1.482,3.274,1.628h0.034v-1.28h2.171L105.804,31.073
		L105.804,31.073z M100.682,22.805c-1.939,0-2.936,1.719-2.936,3.238c0,1.719,1.244,3.128,2.936,3.128
		c1.636,0,2.88-1.317,2.88-3.201C103.562,23.866,102.085,22.805,100.682,22.805z"/>
	<rect x="107.777" y="17.537" fill="#FFFFFF" width="2.366" height="13.537"/>
	<rect x="107.777" y="17.537" fill="none" stroke="#231F20" stroke-width="0.337" width="2.366" height="13.537"/>
	<polygon fill="#FFFFFF" points="117.509,17.537 124.587,17.537 124.587,19.878 119.943,19.878 119.943,23.189 124.392,23.189 
		124.392,25.531 119.943,25.531 119.943,28.732 124.587,28.732 124.587,31.073 117.509,31.073 	"/>
	<polygon fill="none" stroke="#231F20" stroke-width="0.337" points="117.509,17.537 124.587,17.537 124.587,19.878 119.943,19.878 
		119.943,23.189 124.392,23.189 124.392,25.531 119.943,25.531 119.943,28.732 124.587,28.732 124.587,31.073 117.509,31.073 	"/>
	<path fill="#FFFFFF" d="M130.759,23.683c-0.16-0.805-0.693-0.878-0.941-0.878c-0.587,0-0.907,0.457-0.907,0.878
		c0,0.585,0.408,0.713,1.672,1.134c1.226,0.385,2.757,0.988,2.757,3.037c0,2.287-1.76,3.549-3.452,3.549
		c-0.977,0-2.188-0.348-2.953-1.335c-0.602-0.769-0.694-1.573-0.746-2.195h2.419c0.106,0.458,0.32,1.299,1.298,1.299
		c0.766,0,1.068-0.604,1.068-1.025c0-0.75-0.533-0.933-2.224-1.518c-1.121-0.384-2.207-1.244-2.207-2.909
		c0-1.976,1.726-3.146,3.311-3.146c1.475,0,3.128,1.097,3.22,3.11L130.759,23.683L130.759,23.683z"/>
	<path fill="none" stroke="#231F20" stroke-width="0.337" d="M130.759,23.683c-0.16-0.805-0.693-0.878-0.941-0.878
		c-0.587,0-0.907,0.457-0.907,0.878c0,0.585,0.408,0.713,1.672,1.134c1.226,0.385,2.757,0.988,2.757,3.037
		c0,2.287-1.76,3.549-3.452,3.549c-0.977,0-2.188-0.348-2.953-1.335c-0.602-0.769-0.694-1.573-0.746-2.195h2.419
		c0.106,0.458,0.32,1.299,1.298,1.299c0.766,0,1.068-0.604,1.068-1.025c0-0.75-0.533-0.933-2.224-1.518
		c-1.121-0.384-2.207-1.244-2.207-2.909c0-1.976,1.726-3.146,3.311-3.146c1.475,0,3.128,1.097,3.22,3.11L130.759,23.683
		L130.759,23.683z"/>
	<polygon fill="#FFFFFF" points="135.385,23.079 134.229,23.079 134.229,20.921 135.385,20.921 135.385,17.537 137.751,17.537 
		137.751,20.921 139.174,20.921 139.174,23.079 137.751,23.079 137.751,31.073 135.385,31.073 	"/>
	<polygon fill="none" stroke="#231F20" stroke-width="0.337" points="135.385,23.079 134.229,23.079 134.229,20.921 135.385,20.921 
		135.385,17.537 137.751,17.537 137.751,20.921 139.174,20.921 139.174,23.079 137.751,23.079 137.751,31.073 135.385,31.073 	"/>
	<path fill="#FFFFFF" d="M150.272,31.073h-2.17v-1.261c-0.747,0.914-2.205,1.59-3.451,1.59c-2.542,0-4.802-2.084-4.802-5.469
		c0-3.11,2.205-5.36,4.946-5.36c2.011,0,3.202,1.482,3.271,1.628h0.036v-1.28h2.17V31.073L150.272,31.073z M145.149,22.805
		c-1.939,0-2.935,1.719-2.935,3.238c0,1.719,1.246,3.128,2.935,3.128c1.637,0,2.88-1.317,2.88-3.201
		C148.03,23.866,146.555,22.805,145.149,22.805"/>
	<path fill="none" stroke="#231F20" stroke-width="0.337" d="M150.272,31.073h-2.17v-1.261c-0.747,0.914-2.205,1.59-3.451,1.59
		c-2.542,0-4.802-2.084-4.802-5.469c0-3.11,2.205-5.36,4.946-5.36c2.011,0,3.202,1.482,3.271,1.628h0.036v-1.28h2.17V31.073
		L150.272,31.073z M145.149,22.805c-1.939,0-2.935,1.719-2.935,3.238c0,1.719,1.246,3.128,2.935,3.128
		c1.637,0,2.88-1.317,2.88-3.201C148.03,23.866,146.555,22.805,145.149,22.805z"/>
	<polygon fill="#FFFFFF" points="152.816,23.079 151.66,23.079 151.66,20.921 152.816,20.921 152.816,17.537 155.184,17.537 
		155.184,20.921 156.605,20.921 156.605,23.079 155.184,23.079 155.184,31.073 152.816,31.073 	"/>
	<polygon fill="none" stroke="#231F20" stroke-width="0.337" points="152.816,23.079 151.66,23.079 151.66,20.921 152.816,20.921 
		152.816,17.537 155.184,17.537 155.184,20.921 156.605,20.921 156.605,23.079 155.184,23.079 155.184,31.073 152.816,31.073 	"/>
	<path fill="#FFFFFF" d="M159.843,27.085c0.105,0.659,1.032,2.086,2.72,2.086c1.051,0,1.834-0.458,2.278-1.299h2.49
		c-0.567,1.829-2.456,3.53-4.769,3.53c-2.936,0-5.211-2.415-5.211-5.378c0-2.872,2.151-5.506,5.192-5.506
		c3.132,0,5.106,2.78,5.106,5.341c0,0.476-0.071,0.896-0.145,1.225L159.843,27.085L159.843,27.085z M165.23,25.128
		c-0.265-1.628-1.494-2.378-2.668-2.378c-0.871,0-2.349,0.494-2.793,2.378H165.23z"/>
	<path fill="none" stroke="#231F20" stroke-width="0.337" d="M159.843,27.085c0.105,0.659,1.032,2.086,2.72,2.086
		c1.051,0,1.834-0.458,2.278-1.299h2.49c-0.567,1.829-2.456,3.53-4.769,3.53c-2.936,0-5.211-2.415-5.211-5.378
		c0-2.872,2.151-5.506,5.192-5.506c3.132,0,5.106,2.78,5.106,5.341c0,0.476-0.071,0.896-0.145,1.225L159.843,27.085L159.843,27.085z
		 M165.23,25.128c-0.265-1.628-1.494-2.378-2.668-2.378c-0.871,0-2.349,0.494-2.793,2.378H165.23z"/>
</g>
</svg>
